<svg width="288" height="288" viewBox="0 0 288 288" fill="none" xmlns="http://www.w3.org/2000/svg">
<g filter="url(#filter0_d_118_7)">
<circle cx="144" cy="134" r="124" fill="#2196F3"/>
</g>
<path d="M204.596 97.3711V160.457C204.596 169.588 201.165 177.529 194.303 184.28C187.883 190.534 179.832 193.66 170.147 193.66C161.349 193.66 153.74 190.451 147.32 184.031C146.103 182.814 144.996 181.375 144 179.715C143.004 181.32 141.897 182.731 140.68 183.948C133.762 190.423 126.153 193.66 117.853 193.66C108.279 193.66 100.227 190.534 93.6973 184.28C86.8353 177.64 83.4043 169.699 83.4043 160.457V104.842L99.1758 97.3711H100.006V160.457C100.006 166.821 101.721 171.497 105.152 174.485C108.639 177.418 112.872 178.885 117.853 178.885C122.833 178.885 127.039 177.418 130.47 174.485C133.956 171.497 135.699 166.821 135.699 160.457V104.842L151.471 97.3711H152.301V160.457C152.301 166.821 154.016 171.497 157.447 174.485C160.934 177.418 165.167 178.885 170.147 178.885C175.128 178.885 179.334 177.418 182.765 174.485C186.251 171.497 187.994 166.821 187.994 160.457V104.842L203.766 97.3711H204.596Z" fill="white"/>
<defs>
<filter id="filter0_d_118_7" x="0" y="0" width="288" height="288" filterUnits="userSpaceOnUse" color-interpolation-filters="sRGB">
<feFlood flood-opacity="0" result="BackgroundImageFix"/>
<feColorMatrix in="SourceAlpha" type="matrix" values="0 0 0 0 0 0 0 0 0 0 0 0 0 0 0 0 0 0 127 0" result="hardAlpha"/>
<feMorphology radius="5" operator="dilate" in="SourceAlpha" result="effect1_dropShadow_118_7"/>
<feOffset dy="10"/>
<feGaussianBlur stdDeviation="7.5"/>
<feComposite in2="hardAlpha" operator="out"/>
<feColorMatrix type="matrix" values="0 0 0 0 0 0 0 0 0 0 0 0 0 0 0 0 0 0 0.25 0"/>
<feBlend mode="normal" in2="BackgroundImageFix" result="effect1_dropShadow_118_7"/>
<feBlend mode="normal" in="SourceGraphic" in2="effect1_dropShadow_118_7" result="shape"/>
</filter>
</defs>
</svg>
