<svg width="1038" height="288" viewBox="0 0 1038 288" fill="none" xmlns="http://www.w3.org/2000/svg">
<g filter="url(#filter0_d_118_2)">
<circle cx="144" cy="134" r="124" fill="#2196F3"/>
</g>
<path d="M204.596 97.3711V160.457C204.596 169.588 201.165 177.529 194.303 184.28C187.883 190.534 179.832 193.66 170.147 193.66C161.349 193.66 153.74 190.451 147.32 184.031C146.103 182.814 144.996 181.375 144 179.715C143.004 181.32 141.897 182.731 140.68 183.948C133.762 190.423 126.153 193.66 117.853 193.66C108.279 193.66 100.227 190.534 93.6973 184.28C86.8353 177.64 83.4043 169.699 83.4043 160.457V104.842L99.1758 97.3711H100.006V160.457C100.006 166.821 101.721 171.497 105.152 174.485C108.639 177.418 112.872 178.885 117.853 178.885C122.833 178.885 127.039 177.418 130.47 174.485C133.956 171.497 135.699 166.821 135.699 160.457V104.842L151.471 97.3711H152.301V160.457C152.301 166.821 154.016 171.497 157.447 174.485C160.934 177.418 165.167 178.885 170.147 178.885C175.128 178.885 179.334 177.418 182.765 174.485C186.251 171.497 187.994 166.821 187.994 160.457V104.842L203.766 97.3711H204.596Z" fill="white"/>
<path d="M512.214 99.3711V162.457C512.214 171.588 508.783 179.529 501.921 186.28C495.502 192.534 487.45 195.66 477.766 195.66C468.967 195.66 461.358 192.451 454.938 186.031C453.721 184.814 452.614 183.375 451.618 181.715C450.622 183.32 449.515 184.731 448.298 185.948C441.381 192.423 433.771 195.66 425.471 195.66C415.897 195.66 407.845 192.534 401.315 186.28C394.453 179.64 391.022 171.699 391.022 162.457V106.842L406.794 99.3711H407.624V162.457C407.624 168.821 409.34 173.497 412.771 176.485C416.257 179.418 420.49 180.885 425.471 180.885C430.451 180.885 434.657 179.418 438.088 176.485C441.574 173.497 443.317 168.821 443.317 162.457V106.842L459.089 99.3711H459.919V162.457C459.919 168.821 461.634 173.497 465.065 176.485C468.552 179.418 472.785 180.885 477.766 180.885C482.746 180.885 486.952 179.418 490.383 176.485C493.869 173.497 495.612 168.821 495.612 162.457V106.842L511.384 99.3711H512.214ZM600.202 189.85L584.431 197.32H583.601V188.604C579.174 193.308 573.225 195.66 565.754 195.66C555.406 195.66 547.354 192.534 541.599 186.28C535.843 180.027 532.966 172.639 532.966 164.117C532.966 155.263 536.092 147.737 542.346 141.539C548.378 135.562 556.18 132.574 565.754 132.574C572.561 132.574 578.509 134.926 583.601 139.63C583.601 129.835 581.885 123.388 578.454 120.289C575.134 117.301 570.9 115.807 565.754 115.807H545.583V114.977L552.224 101.031H565.754C575.438 101.031 583.49 104.158 589.909 110.411C596.771 117.107 600.202 125.048 600.202 134.234V189.85ZM549.235 164.117C549.235 169.042 550.729 173.11 553.718 176.319C556.595 179.418 560.635 180.968 565.837 180.968C571.26 180.968 575.466 179.391 578.454 176.236C581.774 172.695 583.435 168.71 583.435 164.283C583.435 159.303 581.719 155.263 578.288 152.164C574.857 149.065 570.734 147.516 565.92 147.516C560.884 147.516 556.844 149.148 553.801 152.413C550.757 155.678 549.235 159.579 549.235 164.117ZM694.001 99.3711V162.457C694.001 171.588 690.57 179.529 683.708 186.28C677.289 192.534 669.237 195.66 659.553 195.66C649.979 195.66 641.927 192.534 635.397 186.28C628.535 179.64 625.104 171.699 625.104 162.457V106.842L640.876 99.3711H641.706V162.457C641.706 168.821 643.422 173.497 646.853 176.485C650.339 179.418 654.572 180.885 659.553 180.885C664.533 180.885 668.739 179.418 672.17 176.485C675.656 173.497 677.399 168.821 677.399 162.457V106.842L693.171 99.3711H694.001ZM723.054 197.32V72.8086L738.825 65.3379H739.655V189.85L723.884 197.32H723.054ZM779.665 197.32V117.799H758.332V116.969L765.056 102.691H779.665V72.8086L795.437 65.3379H796.267V102.691H817.6V103.521L810.876 117.799H796.267V189.85L780.495 197.32H779.665ZM895.212 189.85L879.44 197.32H878.61V188.604C874.183 193.308 868.234 195.66 860.764 195.66C850.415 195.66 842.364 192.534 836.608 186.28C830.853 180.027 827.976 172.639 827.976 164.117C827.976 155.263 831.102 147.737 837.355 141.539C843.387 135.562 851.19 132.574 860.764 132.574C867.57 132.574 873.519 134.926 878.61 139.63C878.61 129.835 876.895 123.388 873.464 120.289C870.144 117.301 865.91 115.807 860.764 115.807H840.593V114.977L847.233 101.031H860.764C870.448 101.031 878.5 104.158 884.919 110.411C891.781 117.107 895.212 125.048 895.212 134.234V189.85ZM844.245 164.117C844.245 169.042 845.739 173.11 848.728 176.319C851.605 179.418 855.645 180.968 860.847 180.968C866.27 180.968 870.476 179.391 873.464 176.236C876.784 172.695 878.444 168.71 878.444 164.283C878.444 159.303 876.729 155.263 873.298 152.164C869.867 149.065 865.744 147.516 860.93 147.516C855.894 147.516 851.854 149.148 848.811 152.413C845.767 155.678 844.245 159.579 844.245 164.117ZM920.114 197.32V134.234C920.114 125.104 923.545 117.162 930.407 110.411C936.826 104.158 944.878 101.031 954.562 101.031H965.769V101.861L959.128 115.807H954.562C949.582 115.807 945.349 117.301 941.862 120.289C938.431 123.222 936.716 127.87 936.716 134.234C936.716 134.234 936.716 152.773 936.716 189.85L920.944 197.32H920.114Z" fill="white"/>
<defs>
<filter id="filter0_d_118_2" x="0" y="0" width="288" height="288" filterUnits="userSpaceOnUse" color-interpolation-filters="sRGB">
<feFlood flood-opacity="0" result="BackgroundImageFix"/>
<feColorMatrix in="SourceAlpha" type="matrix" values="0 0 0 0 0 0 0 0 0 0 0 0 0 0 0 0 0 0 127 0" result="hardAlpha"/>
<feMorphology radius="5" operator="dilate" in="SourceAlpha" result="effect1_dropShadow_118_2"/>
<feOffset dy="10"/>
<feGaussianBlur stdDeviation="7.5"/>
<feComposite in2="hardAlpha" operator="out"/>
<feColorMatrix type="matrix" values="0 0 0 0 0 0 0 0 0 0 0 0 0 0 0 0 0 0 0.25 0"/>
<feBlend mode="normal" in2="BackgroundImageFix" result="effect1_dropShadow_118_2"/>
<feBlend mode="normal" in="SourceGraphic" in2="effect1_dropShadow_118_2" result="shape"/>
</filter>
</defs>
</svg>
