<svg width="50" height="50" viewBox="0 0 50 50" fill="none" xmlns="http://www.w3.org/2000/svg">
<circle cx="25" cy="25" r="23.5" stroke="#5A6472" stroke-width="3"/>
<path d="M25 44C35.4934 44 44 35.4934 44 25C44 14.5066 35.4934 6 25 6C14.5066 6 6 14.5066 6 25C6 35.4934 14.5066 44 25 44Z" fill="white"/>
<path d="M34.2849 16.4762V26.1426C34.2849 27.5417 33.7592 28.7585 32.7077 29.7929C31.724 30.7512 30.4904 31.2302 29.0064 31.2302C27.6583 31.2302 26.4924 30.7385 25.5087 29.7548C25.3222 29.5683 25.1526 29.3478 25 29.0934C24.8474 29.3394 24.6778 29.5556 24.4913 29.742C23.4313 30.7342 22.2654 31.2302 20.9935 31.2302C19.5266 31.2302 18.2929 30.7512 17.2923 29.7929C16.2409 28.7755 15.7152 27.5587 15.7152 26.1426V17.6209L18.1318 16.4762H18.259V26.1426C18.259 27.1177 18.5218 27.8342 19.0475 28.2921C19.5817 28.7415 20.2304 28.9663 20.9935 28.9663C21.7567 28.9663 22.4011 28.7415 22.9269 28.2921C23.461 27.8342 23.7281 27.1177 23.7281 26.1426V17.6209L26.1448 16.4762H26.2719V26.1426C26.2719 27.1177 26.5347 27.8342 27.0604 28.2921C27.5947 28.7415 28.2433 28.9663 29.0064 28.9663C29.7696 28.9663 30.4141 28.7415 30.9398 28.2921C31.474 27.8342 31.741 27.1177 31.741 26.1426V17.6209L34.1577 16.4762H34.2849Z" fill="#02A9F2"/>
<path d="M18.871 32.3224L21.1694 28.9514H16.5726L18.871 32.3224Z" fill="#02A9F2"/>
<path d="M18.871 32.3224L21.1694 28.9514H16.5726L18.871 32.3224Z" fill="#02A9F2"/>
<path d="M18.871 32.3224L21.1694 28.9514H16.5726L18.871 32.3224Z" fill="#02A9F2"/>
<path d="M18.871 32.3224L21.1694 28.9514H16.5726L18.871 32.3224Z" fill="#02A9F2"/>
<path d="M18.871 32.3224L21.1694 28.9514H16.5726L18.871 32.3224Z" fill="#02A9F2"/>
<path d="M18.871 32.3224L21.1694 28.9514H16.5726L18.871 32.3224Z" fill="#02A9F2"/>
<path d="M23.4163 36.7141L28.7025 28.8996H18.1299L23.4163 36.7141Z" fill="#02A9F2"/>
<path d="M23.4163 36.7141L28.7025 28.8996H18.1299L23.4163 36.7141Z" fill="#02A9F2"/>
<path d="M23.4163 36.7141L28.7025 28.8996H18.1299L23.4163 36.7141Z" fill="#02A9F2"/>
<path d="M23.4163 36.7141L28.7025 28.8996H18.1299L23.4163 36.7141Z" fill="#02A9F2"/>
<path d="M23.4163 36.7141L28.7025 28.8996H18.1299L23.4163 36.7141Z" fill="#02A9F2"/>
<path d="M23.4163 36.7141L28.7025 28.8996H18.1299L23.4163 36.7141Z" fill="#02A9F2"/>
<path d="M29.4569 34.8065L33.2875 28.9839H25.6262L29.4569 34.8065Z" fill="#02A9F2"/>
<path d="M29.4569 34.8065L33.2875 28.9839H25.6262L29.4569 34.8065Z" fill="#02A9F2"/>
<path d="M29.4569 34.8065L33.2875 28.9839H25.6262L29.4569 34.8065Z" fill="#02A9F2"/>
<path d="M29.4569 34.8065L33.2875 28.9839H25.6262L29.4569 34.8065Z" fill="#02A9F2"/>
<path d="M29.4569 34.8065L33.2875 28.9839H25.6262L29.4569 34.8065Z" fill="#02A9F2"/>
<path d="M29.4569 34.8065L33.2875 28.9839H25.6262L29.4569 34.8065Z" fill="#02A9F2"/>
</svg>
