<svg width="575" height="133" viewBox="0 0 575 133" fill="none" xmlns="http://www.w3.org/2000/svg">
<path d="M121.214 34.3711V97.457C121.214 106.588 117.783 114.529 110.921 121.28C104.502 127.534 96.4499 130.66 86.7656 130.66C77.9668 130.66 70.3577 127.451 63.9385 121.031C62.721 119.814 61.6143 118.375 60.6182 116.715C59.6221 118.32 58.5153 119.731 57.2979 120.948C50.3805 127.423 42.7715 130.66 34.4707 130.66C24.8971 130.66 16.8454 127.534 10.3154 121.28C3.45345 114.64 0.0224609 106.699 0.0224609 97.457V41.8418L15.7939 34.3711H16.624V97.457C16.624 103.821 18.3395 108.497 21.7705 111.485C25.2568 114.418 29.4902 115.885 34.4707 115.885C39.4512 115.885 43.6569 114.418 47.0879 111.485C50.5742 108.497 52.3174 103.821 52.3174 97.457V41.8418L68.0889 34.3711H68.9189V97.457C68.9189 103.821 70.6344 108.497 74.0654 111.485C77.5518 114.418 81.7852 115.885 86.7656 115.885C91.7461 115.885 95.9518 114.418 99.3828 111.485C102.869 108.497 104.612 103.821 104.612 97.457V41.8418L120.384 34.3711H121.214ZM209.202 124.85L193.431 132.32H192.601V123.604C188.174 128.308 182.225 130.66 174.754 130.66C164.406 130.66 156.354 127.534 150.599 121.28C144.843 115.027 141.966 107.639 141.966 99.1172C141.966 90.263 145.092 82.737 151.346 76.5391C157.378 70.5625 165.18 67.5742 174.754 67.5742C181.561 67.5742 187.509 69.9261 192.601 74.6299C192.601 64.835 190.885 58.388 187.454 55.2891C184.134 52.3008 179.9 50.8066 174.754 50.8066H154.583V49.9766L161.224 36.0312H174.754C184.438 36.0312 192.49 39.1579 198.909 45.4111C205.771 52.1071 209.202 60.0482 209.202 69.2344V124.85ZM158.235 99.1172C158.235 104.042 159.729 108.11 162.718 111.319C165.595 114.418 169.635 115.968 174.837 115.968C180.26 115.968 184.466 114.391 187.454 111.236C190.774 107.695 192.435 103.71 192.435 99.2832C192.435 94.3027 190.719 90.263 187.288 87.1641C183.857 84.0651 179.734 82.5156 174.92 82.5156C169.884 82.5156 165.844 84.1481 162.801 87.4131C159.757 90.6781 158.235 94.5794 158.235 99.1172ZM303.001 34.3711V97.457C303.001 106.588 299.57 114.529 292.708 121.28C286.289 127.534 278.237 130.66 268.553 130.66C258.979 130.66 250.927 127.534 244.397 121.28C237.535 114.64 234.104 106.699 234.104 97.457V41.8418L249.876 34.3711H250.706V97.457C250.706 103.821 252.422 108.497 255.853 111.485C259.339 114.418 263.572 115.885 268.553 115.885C273.533 115.885 277.739 114.418 281.17 111.485C284.656 108.497 286.399 103.821 286.399 97.457V41.8418L302.171 34.3711H303.001ZM332.054 132.32V7.80859L347.825 0.337891H348.655V124.85L332.884 132.32H332.054ZM388.665 132.32V52.7988H367.332V51.9688L374.056 37.6914H388.665V7.80859L404.437 0.337891H405.267V37.6914H426.6V38.5215L419.876 52.7988H405.267V124.85L389.495 132.32H388.665ZM504.212 124.85L488.44 132.32H487.61V123.604C483.183 128.308 477.234 130.66 469.764 130.66C459.415 130.66 451.364 127.534 445.608 121.28C439.853 115.027 436.976 107.639 436.976 99.1172C436.976 90.263 440.102 82.737 446.355 76.5391C452.387 70.5625 460.19 67.5742 469.764 67.5742C476.57 67.5742 482.519 69.9261 487.61 74.6299C487.61 64.835 485.895 58.388 482.464 55.2891C479.144 52.3008 474.91 50.8066 469.764 50.8066H449.593V49.9766L456.233 36.0312H469.764C479.448 36.0312 487.5 39.1579 493.919 45.4111C500.781 52.1071 504.212 60.0482 504.212 69.2344V124.85ZM453.245 99.1172C453.245 104.042 454.739 108.11 457.728 111.319C460.605 114.418 464.645 115.968 469.847 115.968C475.27 115.968 479.476 114.391 482.464 111.236C485.784 107.695 487.444 103.71 487.444 99.2832C487.444 94.3027 485.729 90.263 482.298 87.1641C478.867 84.0651 474.744 82.5156 469.93 82.5156C464.894 82.5156 460.854 84.1481 457.811 87.4131C454.767 90.6781 453.245 94.5794 453.245 99.1172ZM529.114 132.32V69.2344C529.114 60.1035 532.545 52.1624 539.407 45.4111C545.826 39.1579 553.878 36.0312 563.562 36.0312H574.769V36.8613L568.128 50.8066H563.562C558.582 50.8066 554.349 52.3008 550.862 55.2891C547.431 58.222 545.716 62.8704 545.716 69.2344C545.716 69.2344 545.716 87.7728 545.716 124.85L529.944 132.32H529.114Z" fill="white"/>
</svg>
